/* XPM */
static const char * vile_mini_16x16_xpm[] = {
"16 16 26 1",
" 	c None",
".	c #000080",
"+	c #070783",
"@	c #8787BE",
"#	c #DDDDE5",
"$	c #D6D6E2",
"%	c #7272B4",
"&	c #050582",
"*	c #5A5AA9",
"=	c #A5A5CC",
"-	c #ECECEC",
";	c #B7B7D4",
">	c #313196",
",	c #0A0A84",
"'	c #6464AE",
")	c #E7E7EA",
"!	c #6565AE",
"~	c #0C0C85",
"{	c #21218F",
"]	c #9696C5",
"^	c #A4A4CB",
"/	c #5757A8",
"(	c #4B4BA2",
"_	c #C9C9DC",
":	c #E0E0E7",
"<	c #8989BF",
"................",
"................",
"...+@#$%&...*...",
"...=----;>,')...",
"...----------...",
"...)!~{]----^...",
".../....(_:<+...",
"................",
"................",
"...+@#$%&...*...",
"...=----;>,')...",
"...----------...",
"...)!~{]----^...",
".../....(_:<+...",
"................",
"................"};

/* XPM */
static const char * vile_mini_32x32_xpm[] = {
"32 32 54 1",
" 	c None",
".	c #000080",
"+	c #020281",
"@	c #5959A9",
"#	c #B4B4D2",
"$	c #E2E2E8",
"%	c #E4E4E9",
"&	c #C0C0D8",
"*	c #7272B4",
"=	c #0E0E86",
"-	c #5B5BAA",
";	c #141489",
">	c #ECECEC",
",	c #D8D8E3",
"'	c #5151A5",
")	c #3A3A9A",
"!	c #E6E6EA",
"~	c #151589",
"{	c #C9C9DC",
"]	c #9292C3",
"^	c #0C0C85",
"/	c #40409D",
"(	c #E1E1E7",
"_	c #BBBBD6",
":	c #D5D5E2",
"<	c #6A6AB1",
"[	c #1E1E8E",
"}	c #060683",
"|	c #272792",
"1	c #8989BF",
"2	c #E9E9EB",
"3	c #8E8EC1",
"4	c #2F2F95",
"5	c #060682",
"6	c #101087",
"7	c #45459F",
"8	c #A5A5CC",
"9	c #B8B8D4",
"0	c #DFDFE6",
"a	c #3C3C9B",
"b	c #41419E",
"c	c #D0D0DF",
"d	c #CBCBDD",
"e	c #E5E5E9",
"f	c #353598",
"g	c #0D0D86",
"h	c #9393C3",
"i	c #17178A",
"j	c #373799",
"k	c #A0A0C9",
"l	c #DCDCE5",
"m	c #BCBCD6",
"n	c #6363AD",
"o	c #050582",
"................................",
"................................",
"................................",
"................................",
"................................",
"........+@#$%&*=..........-.....",
".......;#>>>>>>,'........)!.....",
"......~{>>>>>>>>>]^...../(>.....",
"......_>>>>>>>>>>>:<[}|12>>.....",
"......>>>>>>>>>>>>>>>>>>>>>.....",
"......>>2345678>>>>>>>>>>>9.....",
"......>0a......bc>>>>>>>>d~.....",
"......ef........gh>>>>>>_i......",
"......@...........jkl!mno.......",
"................................",
"................................",
"................................",
"................................",
"................................",
"........+@#$%&*=..........-.....",
".......;#>>>>>>,'........)!.....",
"......~{>>>>>>>>>]^...../(>.....",
"......_>>>>>>>>>>>:<[}|12>>.....",
"......>>>>>>>>>>>>>>>>>>>>>.....",
"......>>2345678>>>>>>>>>>>9.....",
"......>0a......bc>>>>>>>>d~.....",
"......ef........gh>>>>>>_i......",
"......@...........jkl!mno.......",
"................................",
"................................",
"................................",
"................................"};

/* XPM */
static const char * vile_mini_48x48_xpm[] = {
"48 48 68 1",
" 	c None",
".	c #000080",
"+	c #353598",
"@	c #8F8FC1",
"#	c #C8C8DC",
"$	c #E4E4E9",
"%	c #E2E2E8",
"&	c #8D8DC1",
"*	c #5A5AA9",
"=	c #17178A",
"-	c #A5A5CC",
";	c #ECECEC",
">	c #B0B0D1",
",	c #282892",
"'	c #2D2D94",
")	c #333397",
"!	c #D9D9E4",
"~	c #E7E7EA",
"{	c #7979B7",
"]	c #040482",
"^	c #1D1D8D",
"/	c #D4D4E1",
"(	c #38389A",
"_	c #B5B5D3",
":	c #1F1F8E",
"<	c #CDCDDE",
"[	c #DFDFE6",
"}	c #DEDEE6",
"|	c #5F5FAB",
"1	c #44449F",
"2	c #D9D9E3",
"3	c #C9C9DC",
"4	c #6B6BB1",
"5	c #262691",
"6	c #080883",
"7	c #101087",
"8	c #A4A4CB",
"9	c #ABABCE",
"0	c #4F4FA4",
"a	c #19198B",
"b	c #060683",
"c	c #151589",
"d	c #40409D",
"e	c #8989BF",
"f	c #E0E0E7",
"g	c #D7D7E3",
"h	c #42429E",
"i	c #121288",
"j	c #8787BE",
"k	c #EAEAEB",
"l	c #1A1A8C",
"m	c #383899",
"n	c #CECEDE",
"o	c #16168A",
"p	c #090984",
"q	c #8E8EC1",
"r	c #DDDDE5",
"s	c #E1E1E7",
"t	c #43439F",
"u	c #CACADD",
"v	c #B4B4D3",
"w	c #5757A8",
"x	c #030381",
"y	c #5454A6",
"z	c #A7A7CD",
"A	c #D8D8E3",
"B	c #D2D2E0",
"C	c #9C9CC7",
"................................................",
"................................................",
"................................................",
"................................................",
"................................................",
"................................................",
"................................................",
"..............+@#$%#&+.................*........",
"............=-;;;;;;;;>,..............'$........",
"...........)!;;;;;;;;;;~{]...........^/;........",
"..........(%;;;;;;;;;;;;;_^.........:<;;........",
".........,[;;;;;;;;;;;;;;;}|]......12;;;........",
".........<;;;;;;;;;;;;;;;;;;3456718;;;;;........",
".........;;;;;;;;;;;;;;;;;;;;;;;;;;;;;;;........",
".........;;;;;90abcdef;;;;;;;;;;;;;;;;;3........",
".........;;;gh.......ijk;;;;;;;;;;;;;;}5........",
".........;;#l..........)#;;;;;;;;;;;;$m.........",
".........;no............pq;;;;;;;;;;rm..........",
".........s,...............tu;;;;;;;v:...........",
".........w.................xyzA~BC1.............",
"................................................",
"................................................",
"................................................",
"................................................",
"................................................",
"................................................",
"................................................",
"................................................",
"..............+@#$%#&+.................*........",
"............=-;;;;;;;;>,..............'$........",
"...........)!;;;;;;;;;;~{]...........^/;........",
"..........(%;;;;;;;;;;;;;_^.........:<;;........",
".........,[;;;;;;;;;;;;;;;}|]......12;;;........",
".........<;;;;;;;;;;;;;;;;;;3456718;;;;;........",
".........;;;;;;;;;;;;;;;;;;;;;;;;;;;;;;;........",
".........;;;;;90abcdef;;;;;;;;;;;;;;;;;3........",
".........;;;gh.......ijk;;;;;;;;;;;;;;}5........",
".........;;#l..........)#;;;;;;;;;;;;$m.........",
".........;no............pq;;;;;;;;;;rm..........",
".........s,...............tu;;;;;;;v:...........",
".........w.................xyzA~BC1.............",
"................................................",
"................................................",
"................................................",
"................................................",
"................................................",
"................................................",
"................................................"};

const const char *const *const vile_mini_icon[] = {
    vile_mini_16x16_xpm,
    vile_mini_32x32_xpm,
    vile_mini_48x48_xpm,
};
const int n_vile_mini_icon = 3;
